<?xml version="1.0" encoding="UTF-8"?>
<!DOCTYPE svg PUBLIC "-//W3C//DTD SVG 1.1//EN" "http://www.w3.org/Graphics/SVG/1.1/DTD/svg11.dtd">
<!-- Creator: CorelDRAW X7 -->
<svg xmlns="http://www.w3.org/2000/svg" xml:space="preserve" width="8.5in" height="11in" version="1.1" style="shape-rendering:geometricPrecision; text-rendering:geometricPrecision; image-rendering:optimizeQuality; fill-rule:evenodd; clip-rule:evenodd"
viewBox="0 0 8500 11000"
 xmlns:xlink="http://www.w3.org/1999/xlink">
 <defs>
  <style type="text/css">
   <![CDATA[
    .fil2 {fill:#045C9C}
    .fil1 {fill:#6BB90C}
    .fil0 {fill:#FDFDFD}
   ]]>
  </style>
 </defs>
 <g id="Layer_x0020_1">
  <metadata id="CorelCorpID_0Corel-Layer"/>
  <g id="_1896108759168">
   <polygon class="fil0" points="3136,5670 5115,5670 5115,3753 3136,3753 "/>
   <path class="fil1" d="M3494 5249c32,-6 231,-147 396,-199 95,-31 397,-127 487,-131 -28,34 -344,179 -408,209 -79,37 -338,180 -367,250 73,109 348,180 503,190 566,38 1058,-537 854,-1145 -72,8 -43,135 -335,234 -288,98 -589,114 -849,297 -92,65 -235,189 -281,295z"/>
   <path class="fil2" d="M3799 3935c-67,7 -119,49 -161,78 5,78 36,129 -26,185 -63,59 -103,23 -174,15 -34,39 -69,95 -83,144 27,42 119,92 59,194 -68,114 -141,-3 -141,150 1,185 48,49 132,157 58,76 13,159 -51,195 5,33 16,52 30,78 16,30 19,48 54,63 48,-42 90,-131 188,-210 -6,-71 -51,-136 -56,-241 -5,-93 12,-187 45,-260 143,-319 522,-420 800,-269 134,74 219,177 270,332 75,-9 137,-80 175,-132 72,-100 53,-104 -16,-199 -71,2 -106,48 -177,-14 -71,-62 -31,-110 -26,-193 -47,-24 -94,-64 -151,-74 -36,42 -76,93 -164,69 -93,-26 -84,-124 -104,-140 -47,-16 -114,-10 -169,-4 -18,59 -20,118 -88,141 -83,30 -141,-17 -166,-65z"/>
  </g>
 </g>
</svg>
